<svg width="42" height="42" viewBox="0 0 42 42" fill="none" xmlns="http://www.w3.org/2000/svg">
<path fill-rule="evenodd" clip-rule="evenodd" d="M21.0027 27.9031L34.5966 41.0018C35.9603 42.3259 36.8475 42.3395 38.2362 41.0018L40.9636 38.3731C42.2998 37.086 42.3904 36.2411 40.9636 34.8662L26.5717 21.0005L40.965 7.13481C42.3129 5.83162 42.3392 4.95212 40.965 3.62669L38.2375 0.999305C36.8226 -0.364415 35.9485 -0.301417 34.5979 0.999305L21.0027 14.0979L7.40878 1.00054C6.05818 -0.300182 5.18404 -0.363179 3.76913 1.00054L1.04169 3.62792C-0.333844 4.95335 -0.308906 5.83285 1.04169 7.13604L15.4336 21.0005L1.04169 34.8662C-0.385032 36.2411 -0.308906 37.086 1.04169 38.3731L3.76782 41.0018C5.14466 42.3395 6.03193 42.3259 7.40747 41.0018L21.0027 27.9031Z" fill="#5086EC"/>
</svg>
